<?xml version="1.0" encoding="UTF-8"?>
<svg width="667px" height="167px" viewBox="0 0 667 167" version="1.1" xmlns="http://www.w3.org/2000/svg" xmlns:xlink="http://www.w3.org/1999/xlink">
    <!-- Generator: Sketch 53.2 (72643) - https://sketchapp.com -->
    <title>path14</title>
    <desc>Created with Sketch.</desc>
    <g id="Page-1" stroke="none" stroke-width="1" fill="none" fill-rule="evenodd">
        <g id="500px_logo" transform="translate(0.000000, -1.000000)" fill="#FFFFFF" fill-rule="nonzero">
            <g id="g10" transform="translate(333.333325, 83.799999) scale(-1, 1) rotate(-180.000000) translate(-333.333325, -83.799999) translate(0.000000, 0.466667)">
                <g id="g12">
                    <path d="M634.923984,122.01613 L665.061317,152.15333 C666.15465,153.247996 668.717317,155.814663 663.53065,161.154663 C661.30665,163.445329 659.27865,164.614663 657.505317,164.627996 L657.473317,164.627996 C655.94665,164.627996 654.917317,163.809329 654.111984,163.005329 L623.903984,132.79693 L593.745318,163.141329 C591.307985,165.581329 588.453319,165.009329 584.773319,161.334663 C581.030652,157.571996 580.418652,154.682663 582.846652,152.24133 L613.009318,121.899464 L583.467985,92.3567977 L583.257319,92.150531 C582.538652,91.4535977 581.453319,90.4021311 581.438652,88.6874644 C581.425319,86.9193312 582.602652,84.8369312 584.939985,82.4989313 C586.913319,80.523998 588.782652,79.5234647 590.499985,79.5234647 L590.501319,79.5234647 C592.435985,79.5250647 593.671985,80.7645313 594.370652,81.4625313 L624.023984,111.117197 L654.34665,80.7906646 C654.729317,80.4093313 655.797317,79.5297313 657.511984,79.5297313 L657.573317,79.5297313 C659.49065,79.5526647 661.509317,80.6650647 663.57465,82.8338646 C666.977317,86.4073312 667.545317,89.3843978 665.261317,91.681731 L634.923984,122.01613 Z M526.04932,165.309329 C503.715987,163.610663 486.221321,143.967996 486.221321,120.59013 L486.221321,46.6697322 C486.221321,42.3874656 489.477321,41.5109323 494.363988,41.5109323 C499.250654,41.5109323 502.506654,42.3874656 502.506654,46.6697322 L502.506654,120.763997 C502.506654,135.32933 513.102654,147.835996 526.627987,149.235996 C534.39332,150.027996 541.85732,147.59733 547.662653,142.36133 C553.361319,137.22533 556.630653,129.84013 556.633319,122.098397 C556.633319,119.882797 555.547986,112.667197 550.595986,105.969331 C546.850653,100.908264 539.755987,94.879731 527.175987,94.879731 C527.107987,94.878131 527.015987,94.879731 526.93732,94.879731 C523.70932,94.879731 520.95332,94.7275976 520.422654,87.0802645 C520.066654,81.934398 520.095987,79.6333313 524.54132,79.0145314 C532.470653,77.9145314 540.555986,79.4645313 548.567986,83.6286646 C562.249319,90.7463977 571.414652,104.233331 572.491986,118.829197 C573.427986,131.506263 568.855986,143.87333 559.946653,152.76133 C551.003986,161.679996 538.654653,166.247996 526.04932,165.309329 Z M63.6639984,116.31773 C47.6614655,118.615064 32.0567992,114.357864 19.3469328,104.574531 L19.3469328,148.599996 L93.9510643,148.599996 C96.5426643,148.599996 98.4015975,149.066663 98.4015975,156.721329 C98.4015975,164.190663 95.3921309,164.486663 93.4062643,164.486663 L10.7953064,164.486663 C5.99843985,164.486663 3.46041325,160.606663 3.46041325,156.305329 L3.46041325,84.0505312 C3.46041325,80.261998 5.86197319,78.9781314 10.3317731,78.093198 C14.2447996,77.3187981 16.5171996,77.7713314 18.2281329,79.6677313 L18.4082662,79.9453313 C26.278666,91.2895977 43.4035989,102.278664 59.6806652,100.286397 C79.1093314,97.9093309 94.7530643,82.4103979 96.8926642,63.4349317 C98.2578642,51.3270654 94.5630643,39.687999 86.4958645,30.6614659 C78.5317314,21.7494661 67.130665,16.6374663 55.2207986,16.6374663 C37.5770657,16.6374663 22.1562661,27.978666 15.7349329,44.4385322 C14.7843996,46.8754655 13.1786397,48.6797321 6.22811984,46.1526655 C-0.158333329,43.8306656 -0.52864532,41.143199 0.352082658,38.7093324 C8.71197312,15.6895996 30.7614659,0.221354661 55.2182653,0.221354661 C71.7822649,0.221354661 87.6343978,7.32291982 98.7098642,19.7067995 C109.931731,32.2505325 115.028664,48.4213321 113.151597,65.240665 C110.209864,91.5687977 89.8302644,112.572397 63.6639984,116.31773 Z M386.214657,17.7135996 C350.178658,17.7135996 320.859992,47.0311988 320.859992,83.0666646 C320.859992,119.103597 350.178658,148.42133 386.214657,148.42133 C422.247989,148.42133 451.563989,119.103597 451.563989,83.0666646 C451.563989,47.0311988 422.247989,17.7135996 386.214657,17.7135996 Z M386.214657,166.134663 C340.407991,166.134663 303.142659,128.870263 303.142659,83.0666646 C303.142659,37.2630657 340.407991,0 386.214657,0 C432.018656,0 469.281322,37.2630657 469.281322,83.0666646 C469.281322,128.870263 432.018656,166.134663 386.214657,166.134663 Z M206.439995,17.7135996 C170.403996,17.7135996 141.086663,47.0311988 141.086663,83.0666646 C141.086663,119.103597 170.403996,148.42133 206.439995,148.42133 C242.474661,148.42133 271.79066,119.103597 271.79066,83.0666646 C271.79066,47.0311988 242.474661,17.7135996 206.439995,17.7135996 Z M206.439995,166.134663 C160.634663,166.134663 123.368264,128.870263 123.368264,83.0666646 C123.368264,37.2630657 160.634663,0 206.439995,0 C252.243994,0 289.507993,37.2630657 289.507993,83.0666646 C289.507993,128.870263 252.243994,166.134663 206.439995,166.134663 L206.439995,166.134663 Z" id="path14"></path>
                </g>
            </g>
        </g>
    </g>
</svg>