<?xml version="1.0" encoding="UTF-8"?>
<svg width="12px" height="12px" viewBox="0 0 12 12" version="1.1" xmlns="http://www.w3.org/2000/svg" xmlns:xlink="http://www.w3.org/1999/xlink">
    <!-- Generator: Sketch 55 (78076) - https://sketchapp.com -->
    <title>date</title>
    <desc>Created with Sketch.</desc>
    <g id="Page-1" stroke="none" stroke-width="1" fill="none" fill-rule="evenodd">
        <g id="Artboard-Copy-4" transform="translate(-817.000000, -1122.000000)" fill="#B1B1B1" fill-rule="nonzero">
            <g id="Group-6" transform="translate(817.000000, 1119.000000)">
                <path d="M5.9999,3 C2.68628477,3 0,5.68636477 0,8.9999 C0,12.3134352 2.68628477,15 5.9999,15 C9.31351523,15 12,12.3134352 12,8.9999 C12,5.68636477 9.31351523,3 5.9999,3 Z M8.59382323,10.141079 L6.05010084,10.141079 C6.04150069,10.141079 6.03350056,10.138999 6.02498042,10.138679 C6.01646027,10.139079 6.00850014,10.141079 5.99986,10.141079 C5.77069618,10.141079 5.58489308,9.95527592 5.58489308,9.7261121 L5.58489308,5.4900015 C5.58489308,5.26083768 5.77069618,5.07503458 5.99986,5.07503458 C6.22902382,5.07503458 6.41482691,5.26083768 6.41482691,5.4900015 L6.41482691,9.31114519 L8.59366323,9.31114519 C8.82282705,9.31114519 9.00863014,9.49694828 9.00863014,9.7261121 C9.00863014,9.95527592 8.82298705,10.141079 8.59382323,10.141079 Z" id="date"></path>
            </g>
        </g>
    </g>
</svg>