<?xml version="1.0" encoding="UTF-8"?>
<svg width="9px" height="12px" viewBox="0 0 9 12" version="1.1" xmlns="http://www.w3.org/2000/svg" xmlns:xlink="http://www.w3.org/1999/xlink">
    <!-- Generator: Sketch 55 (78076) - https://sketchapp.com -->
    <title>location</title>
    <desc>Created with Sketch.</desc>
    <g id="Page-1" stroke="none" stroke-width="1" fill="none" fill-rule="evenodd">
        <g id="Artboard-Copy-4" transform="translate(-745.000000, -1122.000000)" fill="#B1B1B1" fill-rule="nonzero">
            <g id="Group-13" transform="translate(745.000000, 1119.000000)">
                <path d="M4.49494949,3 C2.01010101,3 0,5.02202808 0,7.52162059 C0,8.82222156 0.646464646,10.0008912 1.28282828,11.0881123 C2.06060606,12.4396196 2.98989899,13.6994752 4.07070707,14.8171792 C4.3030303,15.0609403 4.6869697,15.0609403 4.92929293,14.8171792 C5.87878788,13.8722113 6.71717172,12.8053121 7.42424242,11.6672862 C8.18181818,10.4377102 9,9.01517791 9,7.52162059 C8.98989899,5.03218903 6.97979798,3 4.49494949,3 Z M4.49494949,10.1431444 C2.98989899,10.1431444 1.76767677,8.91367007 1.76767677,7.39968924 C1.76767677,5.88570842 2.98989899,4.65623406 4.49494949,4.65623406 C6,4.65623406 7.22222222,5.87554747 7.22222222,7.39968924 C7.22222222,8.92383102 6,10.1431444 4.49494949,10.1431444 Z" id="location"></path>
            </g>
        </g>
    </g>
</svg>